<svg xmlns="http://www.w3.org/2000/svg" version="1.0" width="204px" height="192px" viewBox="0 0 204 192" preserveAspectRatio="xMidYMid meet" fill='#003b5c'>
 <g >
  <path fill='none' d="M0 96 l0 -96 102 0 102 0 0 48.75 0 48.75 -7.35 -0.05 c-4.10 0 -10 -0.20 -13.15 -0.45 -3.15 -0.25 -8.90 -0.60 -12.75 -0.75 l-7 -0.30 -1.95 2.75 c-3.25 4.65 -10.35 13.05 -11.30 13.40 -0.45 0.15 -1.15 1.05 -1.45 1.95 -0.30 0.90 -1.05 2.15 -1.65 2.80 l-1.05 1.15 1.20 0 c3 0.05 16.10 1.05 19.95 1.60 2.35 0.30 4.85 0.85 5.60 1.20 0.90 0.45 3.20 0.70 6.80 0.70 3 0 9.45 0.45 14.40 1 4.90 0.55 9.10 1 9.35 1 0.20 0 0.35 15.40 0.35 34.25 l0 34.25 -47.50 0 -47.50 0 0 -1.85 c0 -1.05 0.25 -3.45 0.55 -5.40 1.10 -7.50 2.95 -22.30 2.95 -23.45 0 -1 -1.85 -2.75 -9.80 -9.15 -12.95 -10.45 -12.15 -9.85 -12.40 -9.05 -0.75 2.20 -1.30 4.90 -1.30 6.40 0 1.65 -1.30 7.10 -6.10 25.50 -1.10 4.25 -2.50 9.80 -3.15 12.25 l-1.10 4.50 -39.35 0.15 -39.30 0.10 0 -96z m158.40 88.65 c1.50 -1.35 4.15 -3.50 5.85 -4.90 1.70 -1.35 4.45 -3.60 6.05 -5 1.65 -1.35 3.70 -3.05 4.55 -3.75 l1.65 -1.25 -4.35 -4.75 c-2.35 -2.60 -5.35 -5.85 -6.60 -7.25 -1.30 -1.35 -5.15 -5.55 -8.55 -9.25 -3.40 -3.70 -6.45 -6.90 -6.70 -7.10 -0.30 -0.20 -2.85 -0.40 -5.65 -0.40 -2.85 0 -5.15 -0.15 -5.15 -0.35 0 -0.25 -3.35 -0.40 -7.45 -0.40 -4.90 0 -7.35 0.15 -7.10 0.50 0.25 0.30 2.15 3.20 4.30 6.50 2.15 3.30 5.75 8.80 8 12.25 10.05 15.20 16.65 25.35 17.20 26.40 0.30 0.60 0.70 1.10 0.90 1.10 0.15 0 1.55 -1.05 3.05 -2.35z m-116.05 -15.95 c4.05 -3.50 8.40 -7.25 9.65 -8.40 1.25 -1.10 3.60 -3.15 5.25 -4.55 7.20 -5.95 7.20 -5.95 7.80 -11.25 0.50 -4.15 1.35 -20.95 1.15 -21.40 -0.05 -0.10 -2.75 1.50 -6.05 3.55 -3.25 2.05 -8.05 4.90 -10.65 6.40 -2.60 1.45 -6.45 3.75 -8.50 5.05 -2.05 1.30 -4.15 2.40 -4.60 2.40 -0.45 0 -1.05 0.30 -1.25 0.65 -0.20 0.35 -1.95 1.55 -3.90 2.60 -1.90 1.05 -4.75 2.75 -6.30 3.75 -1.50 1 -4.15 2.60 -5.80 3.50 l-3.05 1.70 3.50 4.25 c1.95 2.35 6.05 7.40 9.10 11.15 3.05 3.80 5.70 6.90 5.90 6.90 0.15 0 3.65 -2.85 7.75 -6.30z m4.15 -64.45 c1.80 -1.65 5.50 -5 8.20 -7.50 2.70 -2.45 5.50 -4.95 6.15 -5.50 l1.25 -1.05 -4.65 -0.90 c-2.60 -0.50 -5.50 -1.10 -6.45 -1.35 -0.95 -0.25 -4.90 -1 -8.75 -1.70 -3.85 -0.70 -8.55 -1.65 -10.50 -2.10 -4.60 -1.05 -7.75 -1.60 -12 -2.10 -1.90 -0.25 -5.90 -0.95 -8.90 -1.55 -2.95 -0.65 -5.50 -1 -5.65 -0.85 -0.30 0.25 -2.05 15.10 -2.55 21.40 l-0.30 3.75 4.45 0.65 c2.45 0.35 7.60 1.15 11.45 1.80 6.05 1 14.25 2 20.25 2.40 1.90 0.15 2.15 -0.05 8 -5.40z m100.50 -27.85 c2.35 -1.40 5.40 -3.25 6.75 -4.15 1.40 -0.85 2.85 -1.70 3.25 -1.85 0.40 -0.15 2.90 -1.55 5.50 -3.15 5.60 -3.40 8.85 -5.30 14 -8.25 2.05 -1.15 5.20 -3.05 7 -4.15 1.80 -1.10 3.75 -2.30 4.35 -2.60 1.20 -0.65 1.45 -0.25 -7.60 -11.25 -1.65 -2 -4.45 -5.45 -6.15 -7.70 -1.75 -2.25 -3.25 -4.10 -3.30 -4.15 -0.05 -0.05 -1.80 1.40 -3.90 3.25 -2.05 1.85 -5.10 4.50 -6.70 5.85 -1.60 1.40 -4.70 4.10 -6.90 6 -2.15 1.95 -4.75 4.15 -5.75 5 -5 4.10 -5.20 4.45 -5.65 8.10 -0.20 1.85 -0.50 7.65 -0.70 12.85 -0.40 11 -1.05 10.30 5.80 6.20z m-65.50 -10.15 c0 -0.15 -1.75 -2.90 -3.85 -6.15 -2.10 -3.20 -5.80 -8.90 -8.25 -12.60 -2.40 -3.70 -4.60 -7 -4.85 -7.30 -0.25 -0.30 -0.80 -1.25 -1.25 -2.05 -0.40 -0.85 -1.80 -3.05 -3.10 -4.90 -1.25 -1.85 -2.90 -4.55 -3.70 -6 -2.50 -4.60 -6.55 -9.80 -7.30 -9.35 -2.05 1.15 -20.30 17.60 -20.10 18.10 0.15 0.30 8.60 9.40 23.70 25.40 l3.05 3.25 5.70 0.40 c6.70 0.50 17.25 1.30 18.85 1.40 0.60 0 1.10 -0.05 1.10 -0.20z m36 -10.10 c0 -2.20 2.85 -14.25 8.25 -34.95 0.40 -1.60 0.75 -3.80 0.75 -4.90 0 -1.10 0.60 -4.10 1.30 -6.65 0.75 -2.60 1.25 -4.80 1.10 -4.90 -0.15 -0.15 -2.80 -0.30 -5.95 -0.35 -3.55 0 -6.20 -0.30 -7 -0.70 -0.75 -0.35 -4.05 -0.75 -8 -0.90 -3.70 -0.15 -7.15 -0.40 -7.75 -0.55 -1 -0.30 -1.05 -0.10 -1.35 5.10 -0.15 2.95 -0.50 6.40 -0.80 7.65 -0.25 1.25 -1.20 7.45 -2.10 13.75 -0.85 6.35 -1.65 12.20 -1.80 13.05 -0.25 1.40 0.05 1.75 2.90 4.05 1.75 1.40 4.30 3.60 5.65 4.85 1.35 1.25 2.65 2.30 2.85 2.30 0.25 0 2.70 1.80 5.55 4 5.05 3.95 5.15 4 5.75 2.85 0.35 -0.60 0.60 -2.25 0.65 -3.70z"/>
 </g>
 <g >
  <path  d="M30.90 174.15 c-1.75 -2.15 -6.15 -7.50 -9.75 -11.95 -3.60 -4.40 -6.95 -8.30 -7.35 -8.65 -0.45 -0.40 -0.80 -0.85 -0.80 -1.10 0 -0.20 1.75 -1.35 3.85 -2.50 2.10 -1.20 5.10 -2.95 6.65 -3.95 1.50 -1 4.35 -2.70 6.25 -3.75 1.95 -1.05 3.70 -2.25 3.90 -2.60 0.20 -0.35 0.80 -0.65 1.25 -0.65 0.45 0 2.55 -1.10 4.60 -2.40 2.05 -1.30 5.90 -3.60 8.50 -5.05 2.60 -1.50 7.40 -4.35 10.60 -6.35 3.25 -2.05 6.05 -3.70 6.20 -3.70 0.15 0 0.95 -0.45 1.80 -1.05 0.80 -0.60 1.55 -0.95 1.70 -0.85 0.10 0.15 0 1.80 -0.30 3.70 -0.65 4.80 -0.65 7.85 0.10 7.40 0.35 -0.25 0.40 -0.15 0.15 0.30 -0.25 0.40 -0.60 2.75 -0.80 5.20 -0.20 2.50 -0.60 6.80 -0.90 9.55 -0.55 4.95 -0.55 5 -2.70 7 -1.15 1.10 -3.45 3.15 -5.10 4.50 -1.65 1.40 -3.55 3 -4.25 3.65 -2.55 2.35 -19.60 16.85 -20 17 -0.20 0.10 -1.80 -1.60 -3.60 -3.75z"/>
  <path d="M139.35 82.60 c-0.20 -0.55 0.50 -20.20 0.90 -25.35 0.45 -4.90 0.75 -5.40 5.80 -9.55 1 -0.80 3.60 -3 5.75 -4.95 2.20 -1.90 5.30 -4.60 6.90 -6 1.60 -1.35 4.90 -4.25 7.25 -6.35 2.35 -2.15 4.55 -3.90 4.90 -3.90 0.30 0 2.45 2.40 4.75 5.30 2.30 2.90 4.95 6.25 5.90 7.40 0.95 1.20 3.30 4.05 5.15 6.35 1.90 2.30 3.75 4.60 4.15 5.10 0.90 1.10 0.60 2.25 -0.65 2.70 -0.50 0.20 -2.15 1.15 -3.65 2.10 -1.50 0.95 -4.90 3 -7.50 4.45 -6.60 3.80 -9.50 5.50 -15 8.85 -2.60 1.60 -5.10 3 -5.50 3.15 -0.40 0.15 -1.85 1 -3.25 1.85 -1.35 0.90 -4.50 2.80 -7 4.25 -2.45 1.45 -5.05 3 -5.75 3.45 -1.65 1.15 -2.95 1.60 -3.15 1.15z"/>
 </g>
 <g>
  <path  d="M77 191.30 c0 -0.40 0.70 -3.35 1.55 -6.60 1.60 -6.20 3.45 -13.50 6.90 -26.95 1.15 -4.40 2.05 -8.75 2.05 -9.65 0 -1.85 1.45 -8.10 2 -8.75 0.20 -0.25 0.70 -0.10 1.05 0.25 1 0.90 4.20 3.50 14.60 11.90 4.90 3.90 9.05 7.40 9.15 7.70 0.10 0.30 -0.45 5.85 -1.30 12.30 -0.85 6.45 -1.80 13.70 -2.10 16.15 l-0.55 4.35 -16.70 0 c-13.90 0 -16.65 -0.10 -16.65 -0.70z"/>
  <path d="M110.10 58.95 c-3.10 -2.45 -5.80 -4.45 -6 -4.45 -0.25 0 -1.55 -1.05 -2.90 -2.30 -1.35 -1.25 -4 -3.55 -5.85 -5.05 -2.75 -2.20 -3.40 -3 -3.20 -3.85 0.15 -0.55 1.10 -7 2.10 -14.30 1 -7.30 2.05 -14.30 2.35 -15.65 0.40 -1.85 0.35 -2.55 -0.20 -3.20 -0.35 -0.45 -0.40 -0.70 -0.10 -0.50 0.90 0.55 1.20 -0.85 1.20 -5.45 0 -4.10 0 -4.20 1.20 -4.20 0.70 0 1.85 0.25 2.65 0.55 0.75 0.30 4.35 0.60 7.95 0.65 3.65 0.10 7 0.40 7.60 0.75 0.55 0.30 3.70 0.65 6.95 0.80 3.25 0.15 6.30 0.40 6.80 0.55 0.95 0.30 1.10 1.30 0.35 2.60 -0.95 1.65 -3 9.80 -3 11.85 0 1.15 -0.45 3.75 -0.95 5.80 -5.25 20 -7.65 30.15 -7.80 33.05 -0.15 3.50 -1.40 6.55 -2.80 6.75 -0.35 0.05 -3.25 -1.90 -6.35 -4.40z"/>
 </g>
 <g >
  <path d="M154 188.65 c-0.60 -0.80 -4 -5.90 -7.60 -11.40 -3.60 -5.50 -8.35 -12.80 -10.65 -16.25 -11.05 -16.80 -14.80 -22.65 -14.60 -22.85 0.15 -0.10 2.15 0.05 4.40 0.35 2.60 0.40 6.35 0.45 9.85 0.25 3.85 -0.20 5.60 -0.15 5.60 0.20 0 0.35 1.80 0.55 5.15 0.55 2.80 0 5.35 0.20 5.65 0.40 0.25 0.20 3.30 3.40 6.70 7.10 3.40 3.70 7.35 8 8.70 9.50 1.40 1.50 3.90 4.20 5.55 6 1.65 1.80 3.85 4.20 4.90 5.30 l1.95 2.10 -5.10 4.15 c-2.80 2.30 -7.05 5.80 -9.45 7.80 -2.35 1.95 -5.60 4.60 -7.15 5.85 l-2.80 2.30 -1.10 -1.35z"/>
  <path  d="M39.10 111.45 c-0.65 -0.25 -2.20 -0.40 -3.50 -0.35 -2.55 0.05 -11.10 -1 -20.10 -2.55 -3.15 -0.50 -7.65 -1.25 -10 -1.55 -4.25 -0.65 -5.75 -1.20 -5.20 -2.05 0.15 -0.25 0.45 -2.30 0.70 -4.60 1.60 -14.85 2.55 -22.50 2.80 -22.90 0.15 -0.25 0.45 -0.35 0.65 -0.25 0.65 0.40 13.05 2.85 16.80 3.35 4.30 0.50 7.45 1.05 12 2.10 1.95 0.45 6.65 1.40 10.50 2.10 3.85 0.70 7.80 1.45 8.75 1.70 0.95 0.25 4.45 0.95 7.70 1.60 l5.95 1.15 -2.70 2.45 c-1.50 1.40 -4.85 4.45 -7.45 6.80 -2.60 2.35 -6.10 5.55 -7.75 7.05 -4.95 4.60 -7.25 6.50 -7.65 6.45 -0.20 0 -0.85 -0.20 -1.50 -0.50z"/>
 </g>
 <g >
  <path  d="M192.50 124 c-4.30 -0.50 -10.40 -0.90 -13.65 -0.90 -4.30 -0.05 -6.25 -0.25 -7.35 -0.85 -0.85 -0.45 -2 -0.65 -2.55 -0.50 -0.55 0.20 -1.25 0.10 -1.60 -0.15 -0.50 -0.45 -10.35 -1.55 -13.10 -1.50 -2.60 0.05 -10.80 -0.80 -11 -1.15 -0.15 -0.20 0.65 -1.35 1.75 -2.55 1.10 -1.15 2.25 -2.90 2.55 -3.80 0.30 -0.90 0.95 -1.80 1.45 -2 0.95 -0.35 7.85 -8.50 11.30 -13.30 l1.95 -2.75 5.50 0 c3.05 0 7.65 0.20 10.25 0.45 2.60 0.30 9.55 0.65 15.40 0.85 l10.60 0.30 0 14.45 0 14.40 -1.85 -0.05 c-1.05 -0.05 -5.40 -0.45 -9.65 -0.95z"/>
  <path d="M77.45 67.80 c-0.10 -0.10 -5.05 -0.45 -10.95 -0.80 -5.90 -0.30 -11.30 -0.85 -12 -1.15 -0.65 -0.35 -3.45 -3.10 -6.25 -6.15 -2.75 -3.05 -8.90 -9.65 -13.65 -14.65 -4.80 -5 -8.60 -9.25 -8.50 -9.45 0.25 -0.70 15.75 -14.50 21.15 -18.90 2.60 -2.15 3.75 -2.65 3.75 -1.75 0 0.25 1.25 2.20 2.80 4.35 1.55 2.20 3.45 5.10 4.25 6.50 0.75 1.40 2.40 4.10 3.65 5.95 1.30 1.85 2.70 4.05 3.10 4.90 0.45 0.80 1 1.75 1.25 2.05 0.25 0.30 2.45 3.60 4.85 7.30 2.45 3.70 6.60 10.05 9.25 14.10 2.65 4.10 4.85 7.50 4.85 7.65 0 0.30 -7.20 0.35 -7.55 0.05z"/>
 </g>

</svg> 