<svg width="640" height="320" viewBox="0 0 640 320" fill="none" xmlns="http://www.w3.org/2000/svg">
<g clip-path="url(#clip0_24_69)">
<rect width="640" height="320" fill="white"/>
<mask id="mask0_24_69" style="mask-type:luminance" maskUnits="userSpaceOnUse" x="0" y="0" width="640" height="320">
<path d="M640 0H0V320H640V0Z" fill="white"/>
</mask>
<g mask="url(#mask0_24_69)">
<path d="M174.256 179.964C171.196 179.964 168.514 179.136 166.21 177.48C163.942 175.788 162.358 173.502 161.458 170.622L168.154 167.868C168.622 169.56 169.378 170.856 170.422 171.756C171.466 172.62 172.744 173.052 174.256 173.052C175.912 173.052 177.208 172.512 178.144 171.432C179.116 170.352 179.602 168.84 179.602 166.896V140.436H186.892V166.842C186.892 169.722 186.316 172.134 185.164 174.078C184.048 176.022 182.536 177.498 180.628 178.506C178.72 179.478 176.596 179.964 174.256 179.964ZM201.491 179.964C199.547 179.964 197.819 179.586 196.307 178.83C194.831 178.038 193.661 176.94 192.797 175.536C191.933 174.132 191.501 172.512 191.501 170.676C191.501 168.768 191.987 167.13 192.959 165.762C193.967 164.394 195.299 163.332 196.955 162.576C198.647 161.82 200.519 161.442 202.571 161.442C203.687 161.442 204.695 161.514 205.595 161.658C206.531 161.766 207.359 161.91 208.079 162.09C208.799 162.27 209.393 162.468 209.861 162.684V161.496C209.861 160.02 209.303 158.814 208.187 157.878C207.071 156.906 205.541 156.42 203.597 156.42C202.301 156.42 201.041 156.726 199.817 157.338C198.629 157.914 197.639 158.688 196.847 159.66L192.311 156.096C193.211 154.944 194.255 153.972 195.443 153.18C196.631 152.352 197.945 151.74 199.385 151.344C200.825 150.912 202.337 150.696 203.921 150.696C208.133 150.696 211.337 151.668 213.533 153.612C215.729 155.556 216.827 158.4 216.827 162.144V179.1H209.861V176.292H209.429C208.925 176.94 208.295 177.552 207.539 178.128C206.783 178.668 205.901 179.1 204.893 179.424C203.885 179.784 202.751 179.964 201.491 179.964ZM203.165 174.456C204.605 174.456 205.811 174.15 206.783 173.538C207.791 172.89 208.547 172.062 209.051 171.054C209.591 170.046 209.861 168.984 209.861 167.868C209.069 167.472 208.169 167.166 207.161 166.95C206.153 166.698 205.127 166.572 204.083 166.572C201.995 166.572 200.555 166.968 199.763 167.76C198.971 168.552 198.575 169.524 198.575 170.676C198.575 171.756 198.953 172.656 199.709 173.376C200.501 174.096 201.653 174.456 203.165 174.456ZM230.316 179.1L218.652 151.56H226.698L233.664 169.488H234.096L241.17 151.56H249.108L237.336 179.1H230.316ZM259.765 179.964C257.821 179.964 256.093 179.586 254.581 178.83C253.105 178.038 251.935 176.94 251.071 175.536C250.207 174.132 249.775 172.512 249.775 170.676C249.775 168.768 250.261 167.13 251.233 165.762C252.241 164.394 253.573 163.332 255.229 162.576C256.921 161.82 258.793 161.442 260.845 161.442C261.961 161.442 262.969 161.514 263.869 161.658C264.805 161.766 265.633 161.91 266.353 162.09C267.073 162.27 267.667 162.468 268.135 162.684V161.496C268.135 160.02 267.577 158.814 266.461 157.878C265.345 156.906 263.815 156.42 261.871 156.42C260.575 156.42 259.315 156.726 258.091 157.338C256.903 157.914 255.913 158.688 255.121 159.66L250.585 156.096C251.485 154.944 252.529 153.972 253.717 153.18C254.905 152.352 256.219 151.74 257.659 151.344C259.099 150.912 260.611 150.696 262.195 150.696C266.407 150.696 269.611 151.668 271.807 153.612C274.003 155.556 275.101 158.4 275.101 162.144V179.1H268.135V176.292H267.703C267.199 176.94 266.569 177.552 265.813 178.128C265.057 178.668 264.175 179.1 263.167 179.424C262.159 179.784 261.025 179.964 259.765 179.964ZM261.439 174.456C262.879 174.456 264.085 174.15 265.057 173.538C266.065 172.89 266.821 172.062 267.325 171.054C267.865 170.046 268.135 168.984 268.135 167.868C267.343 167.472 266.443 167.166 265.435 166.95C264.427 166.698 263.401 166.572 262.357 166.572C260.269 166.572 258.829 166.968 258.037 167.76C257.245 168.552 256.849 169.524 256.849 170.676C256.849 171.756 257.227 172.656 257.983 173.376C258.775 174.096 259.927 174.456 261.439 174.456ZM293.167 179.964C290.971 179.964 288.901 179.55 286.957 178.722C285.049 177.894 283.375 176.67 281.935 175.05C280.531 173.394 279.469 171.378 278.749 169.002L285.607 166.302C286.111 168.21 286.993 169.812 288.253 171.108C289.513 172.404 291.169 173.052 293.221 173.052C294.229 173.052 295.183 172.89 296.083 172.566C296.983 172.206 297.703 171.684 298.243 171C298.819 170.316 299.107 169.47 299.107 168.462C299.107 167.49 298.873 166.662 298.405 165.978C297.937 165.258 297.145 164.592 296.029 163.98C294.949 163.332 293.473 162.666 291.601 161.982L289.225 161.118C288.181 160.722 287.119 160.236 286.039 159.66C284.995 159.048 284.023 158.31 283.123 157.446C282.259 156.546 281.557 155.52 281.017 154.368C280.477 153.216 280.207 151.902 280.207 150.426C280.207 148.41 280.729 146.592 281.773 144.972C282.817 143.316 284.275 142.002 286.147 141.03C288.019 140.058 290.197 139.572 292.681 139.572C295.273 139.572 297.415 140.022 299.107 140.922C300.799 141.786 302.113 142.848 303.049 144.108C304.021 145.368 304.705 146.592 305.101 147.78L298.675 150.48C298.459 149.76 298.099 149.076 297.595 148.428C297.091 147.78 296.443 147.258 295.651 146.862C294.859 146.466 293.905 146.268 292.789 146.268C291.745 146.268 290.809 146.448 289.981 146.808C289.153 147.132 288.505 147.6 288.037 148.212C287.569 148.788 287.335 149.472 287.335 150.264C287.335 151.416 287.821 152.406 288.793 153.234C289.801 154.062 291.403 154.836 293.599 155.556L296.029 156.366C297.397 156.834 298.693 157.392 299.917 158.04C301.177 158.652 302.293 159.426 303.265 160.362C304.237 161.298 304.993 162.414 305.533 163.71C306.109 165.006 306.397 166.554 306.397 168.354C306.397 170.334 306.001 172.062 305.209 173.538C304.417 175.014 303.373 176.22 302.077 177.156C300.781 178.092 299.341 178.794 297.757 179.262C296.209 179.73 294.679 179.964 293.167 179.964ZM324.209 179.964C321.401 179.964 318.899 179.352 316.703 178.128C314.543 176.868 312.833 175.14 311.573 172.944C310.349 170.712 309.737 168.174 309.737 165.33C309.737 162.486 310.349 159.966 311.573 157.77C312.833 155.574 314.543 153.846 316.703 152.586C318.899 151.326 321.401 150.696 324.209 150.696C327.269 150.696 329.897 151.344 332.093 152.64C334.289 153.936 335.873 155.808 336.845 158.256L330.365 160.956C329.789 159.696 328.979 158.778 327.935 158.202C326.891 157.59 325.649 157.284 324.209 157.284C322.805 157.284 321.545 157.626 320.429 158.31C319.313 158.958 318.431 159.876 317.783 161.064C317.135 162.252 316.811 163.674 316.811 165.33C316.811 166.986 317.135 168.426 317.783 169.65C318.431 170.838 319.313 171.774 320.429 172.458C321.545 173.106 322.805 173.43 324.209 173.43C325.793 173.43 327.107 173.088 328.151 172.404C329.195 171.684 330.041 170.712 330.689 169.488L337.007 172.296C335.927 174.6 334.289 176.454 332.093 177.858C329.897 179.262 327.269 179.964 324.209 179.964ZM340.861 179.1V151.56H347.503V155.232H347.935C348.403 154.368 349.015 153.612 349.771 152.964C350.563 152.28 351.481 151.74 352.525 151.344C353.569 150.948 354.685 150.75 355.873 150.75C356.593 150.75 357.241 150.804 357.817 150.912C358.393 151.02 358.897 151.164 359.329 151.344V158.418C358.573 158.13 357.817 157.896 357.061 157.716C356.341 157.5 355.567 157.392 354.739 157.392C353.335 157.392 352.111 157.752 351.067 158.472C350.059 159.156 349.285 160.11 348.745 161.334C348.205 162.522 347.935 163.872 347.935 165.384V179.1H340.861ZM363.258 179.1V151.56H370.332V179.1H363.258ZM366.822 148.536C365.562 148.536 364.482 148.086 363.582 147.186C362.682 146.286 362.232 145.206 362.232 143.946C362.232 142.686 362.682 141.624 363.582 140.76C364.482 139.86 365.562 139.41 366.822 139.41C368.082 139.41 369.144 139.86 370.008 140.76C370.908 141.624 371.358 142.686 371.358 143.946C371.358 145.206 370.908 146.286 370.008 147.186C369.144 148.086 368.082 148.536 366.822 148.536ZM376.401 190.764V151.56H383.043V154.908H383.475C383.943 154.188 384.555 153.504 385.311 152.856C386.103 152.208 387.039 151.686 388.119 151.29C389.199 150.894 390.405 150.696 391.737 150.696C394.257 150.696 396.507 151.326 398.487 152.586C400.503 153.81 402.087 155.52 403.239 157.716C404.427 159.912 405.021 162.45 405.021 165.33C405.021 168.21 404.427 170.748 403.239 172.944C402.087 175.14 400.503 176.868 398.487 178.128C396.507 179.352 394.257 179.964 391.737 179.964C389.757 179.964 388.047 179.55 386.607 178.722C385.203 177.858 384.159 176.886 383.475 175.806H383.043L383.475 179.694V190.764H376.401ZM390.495 173.43C391.827 173.43 393.051 173.106 394.167 172.458C395.319 171.774 396.237 170.82 396.921 169.596C397.641 168.372 398.001 166.95 398.001 165.33C398.001 163.674 397.641 162.252 396.921 161.064C396.237 159.876 395.319 158.958 394.167 158.31C393.051 157.626 391.827 157.284 390.495 157.284C389.199 157.284 387.975 157.626 386.823 158.31C385.707 158.958 384.789 159.894 384.069 161.118C383.385 162.306 383.043 163.71 383.043 165.33C383.043 166.95 383.385 168.372 384.069 169.596C384.789 170.784 385.707 171.72 386.823 172.404C387.975 173.088 389.199 173.43 390.495 173.43ZM406.394 151.56H411.2V143.784H418.274V151.56H425.024V157.608H418.274V169.002C418.274 170.262 418.544 171.234 419.084 171.918C419.624 172.566 420.524 172.89 421.784 172.89C422.504 172.89 423.098 172.782 423.566 172.566C424.07 172.35 424.628 172.062 425.24 171.702V178.614C424.484 178.902 423.692 179.118 422.864 179.262C422.072 179.442 421.226 179.532 420.326 179.532C417.482 179.532 415.25 178.722 413.63 177.102C412.01 175.446 411.2 173.178 411.2 170.298V157.608H406.394V151.56ZM431.124 165.816L430.476 151.56V140.436H437.712V151.56L437.064 165.816H431.124ZM434.094 179.424C432.798 179.424 431.682 178.974 430.746 178.074C429.846 177.138 429.396 176.022 429.396 174.726C429.396 173.43 429.846 172.332 430.746 171.432C431.682 170.532 432.798 170.082 434.094 170.082C435.39 170.082 436.488 170.532 437.388 171.432C438.324 172.332 438.792 173.43 438.792 174.726C438.792 176.022 438.324 177.138 437.388 178.074C436.488 178.974 435.39 179.424 434.094 179.424Z" fill="url(#paint0_linear_24_69)"/>
<path d="M24 140H30.1202V173.279H46.8962V179.126H24V140Z" fill="#3C4043"/>
<path d="M63.7596 180C61.1003 180 58.6959 179.381 56.5465 178.142C54.4336 176.903 52.776 175.191 51.5739 173.005C50.3717 170.783 49.7706 168.306 49.7706 165.574C49.7706 162.951 50.3352 160.546 51.4646 158.361C52.6303 156.138 54.2515 154.39 56.328 153.115C58.4045 151.803 60.7724 151.148 63.4318 151.148C66.164 151.148 68.532 151.749 70.5356 152.951C72.5757 154.153 74.1239 155.829 75.1804 157.978C76.2369 160.091 76.7651 162.532 76.7651 165.301C76.7651 165.628 76.7469 165.956 76.7105 166.284C76.674 166.612 76.6558 166.794 76.6558 166.831H55.7815C55.9637 169.308 56.8562 171.22 58.4591 172.568C60.062 173.916 61.8835 174.59 63.9236 174.59C67.0565 174.59 69.4609 173.133 71.1367 170.219L76.2733 172.678C75.0711 174.9 73.3953 176.685 71.246 178.033C69.1331 179.344 66.6376 180 63.7596 180ZM70.6449 162.24C70.572 161.366 70.2806 160.474 69.7706 159.563C69.2606 158.652 68.4591 157.887 67.3662 157.268C66.3097 156.612 64.98 156.284 63.3771 156.284C61.5921 156.284 60.0438 156.831 58.7323 157.923C57.4573 159.016 56.583 160.455 56.1094 162.24H70.6449Z" fill="#3C4043"/>
<path d="M90.8857 180C88.9549 180 87.2063 179.617 85.6398 178.852C84.1097 178.051 82.8893 176.958 81.9786 175.574C81.1042 174.153 80.6671 172.55 80.6671 170.765C80.6671 167.923 81.7236 165.683 83.8365 164.044C85.9859 162.404 88.6999 161.585 91.9786 161.585C94.8565 161.585 97.3155 162.077 99.3556 163.06V161.913C99.3556 160.273 98.6999 158.925 97.3884 157.869C96.1134 156.776 94.5651 156.23 92.7436 156.23C89.9749 156.23 87.7527 157.359 86.0769 159.617L81.4868 156.448C82.7618 154.736 84.3465 153.424 86.2409 152.514C88.1716 151.603 90.3392 151.148 92.7436 151.148C96.7144 151.148 99.7746 152.149 101.924 154.153C104.11 156.12 105.203 158.907 105.203 162.514V179.126H99.3556V175.792H99.0277C98.1534 177.031 97.0423 178.051 95.6944 178.852C94.3465 179.617 92.7436 180 90.8857 180ZM91.8693 175.027C93.2172 175.027 94.4558 174.699 95.5851 174.044C96.7509 173.352 97.6616 172.459 98.3174 171.366C99.0095 170.237 99.3556 169.035 99.3556 167.76C97.4248 166.703 95.3665 166.175 93.1807 166.175C91.1771 166.175 89.6106 166.612 88.4813 167.486C87.352 168.361 86.7873 169.472 86.7873 170.82C86.7873 172.058 87.2791 173.078 88.2627 173.88C89.2828 174.645 90.4849 175.027 91.8693 175.027Z" fill="#3C4043"/>
<path d="M111.549 152.022H117.232V156.066H117.56C118.142 154.681 119.199 153.534 120.729 152.623C122.259 151.676 123.826 151.202 125.428 151.202C126.74 151.202 127.815 151.384 128.652 151.749V158.033C127.414 157.413 126.03 157.104 124.499 157.104C122.532 157.104 120.875 157.869 119.527 159.399C118.215 160.893 117.56 162.732 117.56 164.918V179.126H111.549V152.022Z" fill="#3C4043"/>
<path d="M133.054 152.022H138.737V155.628H139.065C139.867 154.317 141.033 153.242 142.563 152.404C144.093 151.566 145.75 151.148 147.535 151.148C150.887 151.148 153.419 152.131 155.131 154.098C156.88 156.066 157.754 158.78 157.754 162.24V179.126H151.743V163.06C151.743 158.798 149.757 156.667 145.787 156.667C143.783 156.667 142.162 157.468 140.923 159.071C139.685 160.674 139.065 162.568 139.065 164.754V179.126H133.054V152.022Z" fill="#3C4043"/>
<path opacity="0.2" d="M184.713 85.3194L157.355 93.0187L129.997 85.3194L124 17H190.71L184.713 85.3194Z" fill="#FFC836"/>
<path d="M191.694 92.301L164.337 100L136.979 92.301L130.981 23.9816H197.692L191.694 92.301Z" stroke="#FFC836"/>
<mask id="mask1_24_69" style="mask-type:alpha" maskUnits="userSpaceOnUse" x="487" y="32" width="287" height="255">
<path fill-rule="evenodd" clip-rule="evenodd" d="M774 32H487V287H774V32ZM541.5 281C560.554 281 576 265.554 576 246.5C576 227.446 560.554 212 541.5 212C522.446 212 507 227.446 507 246.5C507 265.554 522.446 281 541.5 281Z" fill="#D9D9D9"/>
</mask>
<g mask="url(#mask1_24_69)">
<path d="M575 60H761.5V238H521.5V59.5V47.5H574.5V59.5V60H575Z" stroke="#3399FF"/>
<path d="M529 55H565.5" stroke="#3399FF"/>
<path d="M541 80H569" stroke="#3399FF"/>
<path d="M541 139H569" stroke="#3399FF"/>
<path d="M552 90H620" stroke="#3399FF"/>
<path d="M552 149H620" stroke="#3399FF"/>
<path d="M552 100H620" stroke="#3399FF"/>
<path d="M552 159H620" stroke="#3399FF"/>
<path d="M552 110H620" stroke="#3399FF"/>
<path d="M552 169H620" stroke="#3399FF"/>
<path d="M552 119H620" stroke="#3399FF"/>
<path d="M552 178H620" stroke="#3399FF"/>
<path d="M542 129H552" stroke="#3399FF"/>
<path d="M542 188H552" stroke="#3399FF"/>
<mask id="mask2_24_69" style="mask-type:luminance" maskUnits="userSpaceOnUse" x="543" y="190" width="77" height="26">
<path d="M543 190H620V216H543V190Z" fill="white"/>
</mask>
<g mask="url(#mask2_24_69)">
<path d="M743.611 215.788L734.816 202.894C730.589 196.698 721.451 196.698 717.224 202.894C712.997 209.09 703.859 209.09 699.632 202.894C695.405 196.698 686.267 196.698 682.041 202.894C677.814 209.09 668.676 209.09 664.449 202.894C660.222 196.698 651.084 196.698 646.857 202.894C642.63 209.09 633.493 209.09 629.266 202.894C625.039 196.698 615.901 196.698 611.674 202.894C607.447 209.09 598.309 209.09 594.082 202.894C589.855 196.698 580.718 196.698 576.491 202.894C572.264 209.09 563.126 209.09 558.899 202.894C554.672 196.698 545.534 196.698 541.307 202.894C537.08 209.09 527.943 209.09 523.716 202.894C519.489 196.698 510.351 196.698 506.124 202.894C501.897 209.09 492.759 209.09 488.532 202.894C484.305 196.698 475.168 196.698 470.941 202.894C466.714 209.09 457.576 209.09 453.349 202.894C449.122 196.698 439.984 196.698 435.757 202.894C431.53 209.09 422.393 209.09 418.166 202.894C413.939 196.698 404.801 196.698 400.574 202.894C396.347 209.09 387.209 209.09 382.982 202.894C378.756 196.698 369.618 196.698 365.391 202.894C361.164 209.09 352.026 209.09 347.799 202.894C343.572 196.698 334.434 196.698 330.208 202.894C325.981 209.09 316.843 209.09 312.616 202.894C308.389 196.698 299.251 196.698 295.024 202.894C290.797 209.09 281.66 209.09 277.433 202.894C273.206 196.698 264.068 196.698 259.841 202.894C255.614 209.09 246.476 209.09 242.249 202.894C238.022 196.698 228.885 196.698 224.658 202.894C220.431 209.09 211.293 209.09 207.066 202.894C202.839 196.698 193.701 196.698 189.474 202.894C185.247 209.09 176.11 209.09 171.883 202.894C167.656 196.698 158.518 196.698 154.291 202.894C150.064 209.09 140.926 209.09 136.699 202.894C132.472 196.698 123.335 196.698 119.108 202.894C114.881 209.09 105.743 209.09 101.516 202.894C97.2891 196.698 88.1513 196.698 83.9244 202.894C79.6974 209.09 70.5597 209.09 66.3327 202.894C62.1058 196.698 52.968 196.698 48.7411 202.894C44.5141 209.09 35.3764 209.09 31.1494 202.894C26.9225 196.698 17.7847 196.698 13.5578 202.894C9.33079 209.09 0.193046 209.09 -4.03391 202.894C-8.26086 196.698 -17.3986 196.698 -21.6255 202.894C-25.8525 209.09 -34.9902 209.09 -39.2172 202.894C-43.4441 196.698 -52.5819 196.698 -56.8088 202.894C-61.0358 209.09 -70.1735 209.09 -74.4005 202.894C-78.6274 196.698 -87.7652 196.698 -91.9921 202.894C-96.2191 209.09 -105.357 209.09 -109.584 202.894C-113.811 196.698 -122.948 196.698 -127.175 202.894C-131.402 209.09 -140.54 209.09 -144.767 202.894C-148.994 196.698 -158.132 196.698 -162.359 202.894C-166.586 209.09 -175.723 209.09 -179.95 202.894C-184.177 196.698 -193.315 196.698 -197.542 202.894C-201.769 209.09 -210.907 209.09 -215.134 202.894C-219.361 196.698 -228.498 196.698 -232.725 202.894C-236.952 209.09 -246.09 209.09 -250.317 202.894C-254.544 196.698 -263.682 196.698 -267.909 202.894C-272.136 209.09 -281.273 209.09 -285.5 202.894C-289.727 196.698 -298.865 196.698 -303.092 202.894C-307.319 209.09 -316.457 209.09 -320.684 202.894C-324.911 196.698 -334.048 196.698 -338.275 202.894C-342.502 209.09 -351.64 209.09 -355.867 202.894C-360.094 196.698 -369.232 196.698 -373.459 202.894L-382.254 215.788" stroke="#FF349A"/>
</g>
</g>
<path d="M548.625 245.375V251.875C548.625 256.086 545.211 259.5 541 259.5C536.789 259.5 533.375 256.086 533.375 251.875V245.375C533.375 241.164 536.789 237.75 541 237.75C545.211 237.75 548.625 241.164 548.625 245.375Z" stroke="#FF349A"/>
<path d="M528 242.089H533.778" stroke="#FF349A"/>
<path d="M528 248.625H532.875" stroke="#FF349A"/>
<path d="M528 255.378H533.778" stroke="#FF349A"/>
<path d="M554 242.089H548.222" stroke="#FF349A"/>
<path d="M554 248.625H549.125" stroke="#FF349A"/>
<path d="M554 255.378H548.222" stroke="#FF349A"/>
<path d="M533.688 234L537.75 238.062" stroke="#FF349A"/>
<path d="M544.25 238.062L548.312 234" stroke="#FF349A"/>
<path d="M538.689 245.556H543.022" stroke="#FF349A"/>
<path d="M538.689 250.756H543.022" stroke="#FF349A"/>
<path d="M541.127 274.539C525.928 274.539 513.607 262.218 513.607 247.019C513.607 231.821 525.928 219.5 541.127 219.5C556.325 219.5 568.646 231.821 568.646 247.019C568.646 262.218 556.325 274.539 541.127 274.539Z" stroke="#3399FF"/>
<path d="M521.646 266.5L496 292.146" stroke="#3399FF"/>
<path opacity="0.2" d="M534.775 74.5308L515.5 80L496.225 74.5308L492 26H539L534.775 74.5308Z" fill="#FFC836"/>
<path d="M338 69C363.405 69 384 48.4051 384 23C384 -2.4051 363.405 -23 338 -23C312.595 -23 292 -2.4051 292 23C292 48.4051 312.595 69 338 69Z" fill="#DDEEDD" fill-opacity="0.32"/>
<mask id="mask3_24_69" style="mask-type:luminance" maskUnits="userSpaceOnUse" x="357" y="34" width="43" height="43">
<path fill-rule="evenodd" clip-rule="evenodd" d="M357.314 34.3137L373.931 73.5582L381.709 65.78L392.315 76.3866L399.387 69.3155L388.78 58.7089L396.558 50.9307L357.314 34.3137Z" fill="white"/>
</mask>
<g mask="url(#mask3_24_69)">
<path d="M373.931 73.5582L373.01 73.9481L373.588 75.3146L374.638 74.2653L373.931 73.5582ZM357.314 34.3137L357.704 33.3929L355.43 32.4303L356.393 34.7036L357.314 34.3137ZM381.709 65.78L382.416 65.0729L381.709 64.3658L381.002 65.0729L381.709 65.78ZM392.315 76.3866L391.608 77.0937L392.315 77.8008L393.023 77.0937L392.315 76.3866ZM399.387 69.3155L400.094 70.0226L400.801 69.3155L400.094 68.6084L399.387 69.3155ZM388.78 58.7089L388.073 58.0018L387.366 58.7089L388.073 59.416L388.78 58.7089ZM396.558 50.9307L397.265 51.6378L398.315 50.5885L396.948 50.0099L396.558 50.9307ZM374.852 73.1682L358.235 33.9238L356.393 34.7036L373.01 73.9481L374.852 73.1682ZM381.002 65.0729L373.224 72.8511L374.638 74.2653L382.416 66.4871L381.002 65.0729ZM393.023 75.6795L382.416 65.0729L381.002 66.4871L391.608 77.0937L393.023 75.6795ZM398.679 68.6084L391.608 75.6795L393.023 77.0937L400.094 70.0226L398.679 68.6084ZM388.073 59.416L398.679 70.0226L400.094 68.6084L389.487 58.0018L388.073 59.416ZM395.851 50.2236L388.073 58.0018L389.487 59.416L397.265 51.6378L395.851 50.2236ZM356.924 35.2346L396.168 51.8516L396.948 50.0099L357.704 33.3929L356.924 35.2346Z" fill="#33CC00"/>
</g>
<path d="M321 35.5H335" stroke="#33CC00"/>
<path d="M381 35.5H395" stroke="#33CC00"/>
<path d="M358.5 -1V13" stroke="#33CC00"/>
<path d="M358.5 59V73" stroke="#33CC00"/>
<path d="M332.19 9.48346L342.09 19.383" stroke="#33CC00"/>
<path d="M384.517 10.1906L374.617 20.0901" stroke="#33CC00"/>
<path d="M342.09 52.617L332.191 62.5165" stroke="#33CC00"/>
<path d="M179.758 288.723L179.768 288.715L179.778 288.707C181.906 287.071 183.035 284.237 183.035 280.049V258.193C183.035 248.943 185.572 241.674 190.708 236.457C195.851 231.128 203.268 228.5 212.878 228.5H227H227.5V229V245.86V246.36H227H215.074C212.07 246.36 209.475 247.4 207.268 249.493C205.184 251.67 204.12 254.603 204.12 258.349V281.766C204.12 286.723 203.113 290.831 201.06 294.056C199.047 297.218 195.861 299.282 191.566 300.277V300.723C195.861 301.718 199.047 303.782 201.06 306.944C203.113 310.169 204.12 314.277 204.12 319.234V342.651C204.12 346.403 205.187 349.281 207.268 351.351C209.479 353.551 212.073 354.64 215.074 354.64H227H227.5V355.14V372V372.5H227H212.878C203.27 372.5 195.853 369.925 190.71 364.701C185.572 359.483 183.035 352.161 183.035 342.807V320.951C183.035 316.766 181.908 313.871 179.768 312.129C177.676 310.444 175.021 309.586 171.766 309.586H168H167.5V309.086V291.914V291.414H168H171.766C175.015 291.414 177.666 290.507 179.758 288.723Z" stroke="#33CC00"/>
<path d="M235 274H425V275H235V274Z" fill="#33CC00"/>
<path d="M235 287H425V288H235V287Z" fill="#33CC00"/>
<path d="M235 299H425V300H235V299Z" fill="#33CC00"/>
<path d="M235 313H349V314H235V313Z" fill="#33CC00"/>
</g>
</g>
<defs>
<linearGradient id="paint0_linear_24_69" x1="160" y1="195.1" x2="435.515" y2="106.853" gradientUnits="userSpaceOnUse">
<stop offset="0.0677083" stop-color="#3399FF"/>
<stop offset="0.34375" stop-color="#0066FF"/>
<stop offset="0.619792" stop-color="#9933FF"/>
<stop offset="0.911458" stop-color="#FF3399"/>
</linearGradient>
<clipPath id="clip0_24_69">
<rect width="640" height="320" fill="white"/>
</clipPath>
</defs>
</svg>
